<svg xmlns="http://www.w3.org/2000/svg" viewBox="0 0 496 496">
    <path class="pathX" d="M248 0C111 0 0 111 0 248s111 248 248 248 248-111 248-248C495.8 111.1 384.9 0.2 248 0zM248 480C119.9 480 16 376.1 16 248S119.9 16 248 16s232 103.9 232 232C479.9 376.1 376.1 479.9 248 480z"/>
    <path class="pathCircle" d="M361.1 134.9c-3.1-3.1-8.2-3.1-11.3 0L248 236.7 146.2 134.9c-3.1-3.2-8.1-3.3-11.3-0.2 -3.2 3.1-3.3 8.1-0.2 11.3 0.1 0.1 0.1 0.1 0.2 0.2L236.7 248 134.9 349.8c-3.2 3.1-3.3 8.1-0.2 11.3 3.1 3.2 8.1 3.3 11.3 0.2 0.1-0.1 0.1-0.1 0.2-0.2L248 259.3l101.8 101.8c3.2 3.1 8.2 3 11.3-0.2 3-3.1 3-8 0-11.1L259.3 248l101.8-101.8C364.3 143.1 364.3 138 361.1 134.9z"/>
</svg>
