<svg xmlns="http://www.w3.org/2000/svg" viewBox="0 0 387.3 387.3">
    <path d="M330.6 56.6c-75.5-75.5-198.5-75.5-274 0s-75.5 198.5 0 274c75.7 75.5 198.3 75.5 274 0C406.1 255.1 406.1 132.1 330.6 56.6zM316.5 316.5c-67.8 67.7-178 67.7-245.7 0 -67.7-67.8-67.7-178 0-245.7 67.9-67.7 177.8-67.7 245.7 0C384.2 138.5 384.2 248.7 316.5 316.5z"/>
    <path d="M239.5 193.6l52.5-52.5c3.9-3.9 3.9-10.2 0-14.1l-31.7-31.7c-3.9-3.9-10.2-3.9-14.1 0l-52.6 52.4 -52.5-52.5c-3.9-3.9-10.2-3.9-14.1 0l-31.7 31.7c-3.9 3.9-3.9 10.2 0 14.1l52.4 52.6 -52.5 52.5c-3.9 3.9-3.9 10.2 0 14.1l31.7 31.7c3.9 3.9 10.2 3.9 14.1 0l52.6-52.4 52.5 52.5c3.9 3.9 10.2 3.9 14.1 0l31.7-31.7c3.9-3.9 3.9-10.2 0-14.1L239.5 193.6zM253.2 270.7l-52.5-52.5c-3.9-3.9-10.2-3.9-14.1 0l-52.5 52.5 -17.6-17.6 52.5-52.5c3.9-3.9 3.9-10.2 0-14.1l-52.6-52.5 17.6-17.6 52.5 52.5c3.9 3.9 10.2 3.9 14.1 0l52.5-52.5 17.6 17.6 -52.4 52.5c-3.9 3.9-3.9 10.2 0 14.1l52.5 52.5L253.2 270.7z"/>
</svg>
